<?xml version="1.0" encoding="UTF-8" standalone="no"?>
<!DOCTYPE svg PUBLIC "-//W3C//DTD SVG 1.1//EN"
 "http://www.w3.org/Graphics/SVG/1.1/DTD/svg11.dtd">
<!-- Generated by graphviz version 2.40.1 (0)
 -->
<!-- Title: workflow Pages: 1 -->
<svg width="326pt" height="278pt"
 viewBox="0.00 0.00 335.00 286.00" xmlns="http://www.w3.org/2000/svg" xmlns:xlink="http://www.w3.org/1999/xlink">
<g id="graph0" class="graph" transform="scale(.9722 .9722) rotate(0) translate(4 282)">
<title>workflow</title>
<g id="clust1" class="cluster">
<title>cluster_inputs</title>
<polygon fill="transparent" stroke="#000000" stroke-dasharray="5,2" points="192.5,-215 192.5,-270 275.5,-270 275.5,-215 192.5,-215"/>
<text text-anchor="middle" x="232.5" y="-258" font-family="Times,serif" font-size="10.00" fill="#000000">Workflow Inputs</text>
</g>
<g id="clust2" class="cluster">
<title>cluster_outputs</title>
<polygon fill="transparent" stroke="#000000" stroke-dasharray="5,2" points="61.5,-8 61.5,-63 173.5,-63 173.5,-8 61.5,-8"/>
<text text-anchor="middle" x="105" y="-15" font-family="Times,serif" font-size="10.00" fill="#000000">Workflow Outputs</text>
</g>
<!-- db -->
<g id="node1" class="node">
<title>db</title>
<polygon fill="#94ddf4" stroke="#000000" points="201,-223.5 201,-242.5 228,-242.5 228,-223.5 201,-223.5"/>
<text text-anchor="middle" x="214.5" y="-230.5" font-family="Helvetica,sans-Serif" font-size="10.00" fill="#000000">db</text>
</g>
<!-- load_pseudos -->
<g id="node5" class="node">
<title>load_pseudos</title>
<polygon fill="#f3cea1" stroke="#000000" points="0,-170.5 0,-189.5 75,-189.5 75,-170.5 0,-170.5"/>
<text text-anchor="middle" x="37.5" y="-177.5" font-family="Helvetica,sans-Serif" font-size="10.00" fill="#000000">load_pseudos</text>
</g>
<!-- db&#45;&gt;load_pseudos -->
<g id="edge4" class="edge">
<title>db&#45;&gt;load_pseudos</title>
<path fill="none" stroke="#000000" d="M200.905,-228.9292C174.6134,-221.0566 115.9244,-203.483 76.52,-191.6839"/>
<polygon fill="#000000" stroke="#000000" points="76.8075,-189.2126 69.3989,-189.5516 75.4019,-193.9067 76.8075,-189.2126"/>
<text text-anchor="middle" x="131.5" y="-200.6" font-family="Helvetica,sans-Serif" font-size="8.00" fill="#000000">db</text>
</g>
<!-- load_input -->
<g id="node6" class="node">
<title>load_input</title>
<polygon fill="#fafad2" stroke="#000000" points="160,-170.5 160,-189.5 221,-189.5 221,-170.5 160,-170.5"/>
<text text-anchor="middle" x="190.5" y="-177.5" font-family="Helvetica,sans-Serif" font-size="10.00" fill="#000000">load_input</text>
</g>
<!-- db&#45;&gt;load_input -->
<g id="edge5" class="edge">
<title>db&#45;&gt;load_input</title>
<path fill="none" stroke="#000000" d="M210.098,-223.279C206.6811,-215.7333 201.8679,-205.1042 197.8667,-196.2681"/>
<polygon fill="#000000" stroke="#000000" points="199.9935,-195.0254 194.8741,-189.6594 195.5298,-197.0467 199.9935,-195.0254"/>
<text text-anchor="middle" x="207.5" y="-200.6" font-family="Helvetica,sans-Serif" font-size="8.00" fill="#000000">db</text>
</g>
<!-- load_xs -->
<g id="node7" class="node">
<title>load_xs</title>
<polygon fill="#fafad2" stroke="#000000" points="278,-170.5 278,-189.5 327,-189.5 327,-170.5 278,-170.5"/>
<text text-anchor="middle" x="302.5" y="-177.5" font-family="Helvetica,sans-Serif" font-size="10.00" fill="#000000">load_xs</text>
</g>
<!-- db&#45;&gt;load_xs -->
<g id="edge6" class="edge">
<title>db&#45;&gt;load_xs</title>
<path fill="none" stroke="#000000" d="M222.105,-223.4899C225.0481,-220.3677 228.6392,-217.1507 232.5,-215 246.0616,-207.4454 252.437,-213.5742 266.5,-207 266.5683,-206.9681 274.949,-200.6832 283.6061,-194.186"/>
<polygon fill="#000000" stroke="#000000" points="285.4173,-195.8899 289.5448,-189.7282 282.4757,-191.9711 285.4173,-195.8899"/>
<text text-anchor="middle" x="282.5" y="-200.6" font-family="Helvetica,sans-Serif" font-size="8.00" fill="#000000">db</text>
</g>
<!-- get&#45;command -->
<g id="node8" class="node">
<title>get&#45;command</title>
<polygon fill="#fafad2" stroke="#000000" points="79.5,-170.5 79.5,-189.5 155.5,-189.5 155.5,-170.5 79.5,-170.5"/>
<text text-anchor="middle" x="117.5" y="-177.5" font-family="Helvetica,sans-Serif" font-size="10.00" fill="#000000">get&#45;command</text>
</g>
<!-- db&#45;&gt;get&#45;command -->
<g id="edge8" class="edge">
<title>db&#45;&gt;get&#45;command</title>
<path fill="none" stroke="#000000" d="M200.6023,-225.4064C185.2058,-216.9939 160.102,-203.2774 141.5089,-193.1183"/>
<polygon fill="#000000" stroke="#000000" points="142.3011,-190.7593 134.9835,-189.5528 139.9516,-195.0593 142.3011,-190.7593"/>
<text text-anchor="middle" x="171.5" y="-200.6" font-family="Helvetica,sans-Serif" font-size="8.00" fill="#000000">db</text>
</g>
<!-- load_vs -->
<g id="node9" class="node">
<title>load_vs</title>
<polygon fill="#fafad2" stroke="#000000" points="225,-170.5 225,-189.5 274,-189.5 274,-170.5 225,-170.5"/>
<text text-anchor="middle" x="249.5" y="-177.5" font-family="Helvetica,sans-Serif" font-size="10.00" fill="#000000">load_vs</text>
</g>
<!-- db&#45;&gt;load_vs -->
<g id="edge10" class="edge">
<title>db&#45;&gt;load_vs</title>
<path fill="none" stroke="#000000" d="M220.9195,-223.279C226.0012,-215.5838 233.2006,-204.682 239.1021,-195.7454"/>
<polygon fill="#000000" stroke="#000000" points="241.3081,-196.8508 243.1212,-189.6594 237.2192,-194.1505 241.3081,-196.8508"/>
<text text-anchor="middle" x="241.5" y="-200.6" font-family="Helvetica,sans-Serif" font-size="8.00" fill="#000000">db</text>
</g>
<!-- step -->
<g id="node2" class="node">
<title>step</title>
<polygon fill="#94ddf4" stroke="#000000" points="232,-223.5 232,-242.5 267,-242.5 267,-223.5 232,-223.5"/>
<text text-anchor="middle" x="249.5" y="-230.5" font-family="Helvetica,sans-Serif" font-size="10.00" fill="#000000">step</text>
</g>
<!-- step&#45;&gt;load_xs -->
<g id="edge7" class="edge">
<title>step&#45;&gt;load_xs</title>
<path fill="none" stroke="#000000" d="M267.0111,-224.4189C274.6486,-220.02 283.2629,-214.0888 289.5,-207 292.2493,-203.8753 294.5498,-200.0668 296.4136,-196.307"/>
<polygon fill="#000000" stroke="#000000" points="298.7218,-197.1442 299.2992,-189.7503 294.237,-195.1704 298.7218,-197.1442"/>
<text text-anchor="middle" x="302.5" y="-200.6" font-family="Helvetica,sans-Serif" font-size="8.00" fill="#000000">step</text>
</g>
<!-- step&#45;&gt;load_vs -->
<g id="edge9" class="edge">
<title>step&#45;&gt;load_vs</title>
<path fill="none" stroke="#000000" d="M249.5,-223.279C249.5,-215.8827 249.5,-205.5239 249.5,-196.7951"/>
<polygon fill="#000000" stroke="#000000" points="251.9501,-196.6594 249.5,-189.6594 247.0501,-196.6594 251.9501,-196.6594"/>
<text text-anchor="middle" x="257.5" y="-200.6" font-family="Helvetica,sans-Serif" font-size="8.00" fill="#000000">step</text>
</g>
<!-- gk_qeheat_results -->
<g id="node3" class="node">
<title>gk_qeheat_results</title>
<polygon fill="#94ddf4" stroke="#000000" points="70,-35.5 70,-54.5 165,-54.5 165,-35.5 70,-35.5"/>
<text text-anchor="middle" x="117.5" y="-42.5" font-family="Helvetica,sans-Serif" font-size="10.00" fill="#000000">gk_qeheat_results</text>
</g>
<!-- preprocess_input -->
<g id="node4" class="node">
<title>preprocess_input</title>
<polygon fill="#fafad2" stroke="#000000" points="178,-125.5 178,-144.5 267,-144.5 267,-125.5 178,-125.5"/>
<text text-anchor="middle" x="222.5" y="-132.5" font-family="Helvetica,sans-Serif" font-size="10.00" fill="#000000">preprocess_input</text>
</g>
<!-- run_qeheat -->
<g id="node10" class="node">
<title>run_qeheat</title>
<polygon fill="#fafad2" stroke="#000000" points="85,-80.5 85,-99.5 150,-99.5 150,-80.5 85,-80.5"/>
<text text-anchor="middle" x="117.5" y="-87.5" font-family="Helvetica,sans-Serif" font-size="10.00" fill="#000000">run_qeheat</text>
</g>
<!-- preprocess_input&#45;&gt;run_qeheat -->
<g id="edge11" class="edge">
<title>preprocess_input&#45;&gt;run_qeheat</title>
<path fill="none" stroke="#000000" d="M200.2322,-125.4567C184.5015,-118.7149 163.2776,-109.619 146.2652,-102.3279"/>
<polygon fill="#000000" stroke="#000000" points="147.1348,-100.0352 139.7357,-99.5296 145.2046,-104.539 147.1348,-100.0352"/>
<text text-anchor="middle" x="185" y="-110.6" font-family="Helvetica,sans-Serif" font-size="8.00" fill="#000000">pw</text>
</g>
<!-- load_pseudos&#45;&gt;run_qeheat -->
<g id="edge13" class="edge">
<title>load_pseudos&#45;&gt;run_qeheat</title>
<path fill="none" stroke="#000000" d="M45.9297,-170.2039C55.4627,-159.1578 71.4844,-140.6898 85.5,-125 91.3792,-118.4185 97.9451,-111.2125 103.5919,-105.0587"/>
<polygon fill="#000000" stroke="#000000" points="105.538,-106.562 108.4734,-99.7513 101.9314,-103.245 105.538,-106.562"/>
<text text-anchor="middle" x="101" y="-133.1" font-family="Helvetica,sans-Serif" font-size="8.00" fill="#000000">pseudos</text>
</g>
<!-- load_input&#45;&gt;preprocess_input -->
<g id="edge1" class="edge">
<title>load_input&#45;&gt;preprocess_input</title>
<path fill="none" stroke="#000000" d="M197.2864,-170.4567C201.4441,-164.6098 206.861,-156.9923 211.6078,-150.3171"/>
<polygon fill="#000000" stroke="#000000" points="213.6633,-151.6541 215.7234,-144.5296 209.6701,-148.8144 213.6633,-151.6541"/>
<text text-anchor="middle" x="219" y="-155.6" font-family="Helvetica,sans-Serif" font-size="8.00" fill="#000000">in_file</text>
</g>
<!-- load_xs&#45;&gt;preprocess_input -->
<g id="edge2" class="edge">
<title>load_xs&#45;&gt;preprocess_input</title>
<path fill="none" stroke="#000000" d="M288.3951,-170.2853C280.3726,-164.9255 270.049,-158.302 260.5,-153 257.3109,-151.2293 253.919,-149.4641 250.525,-147.7696"/>
<polygon fill="#000000" stroke="#000000" points="251.4143,-145.4777 244.0482,-144.6155 249.2689,-149.8831 251.4143,-145.4777"/>
<text text-anchor="middle" x="285.5" y="-155.6" font-family="Helvetica,sans-Serif" font-size="8.00" fill="#000000">xs_file</text>
</g>
<!-- get&#45;command&#45;&gt;run_qeheat -->
<g id="edge12" class="edge">
<title>get&#45;command&#45;&gt;run_qeheat</title>
<path fill="none" stroke="#000000" d="M117.5,-170.3684C117.5,-155.2113 117.5,-125.5921 117.5,-106.8532"/>
<polygon fill="#000000" stroke="#000000" points="119.9501,-106.5623 117.5,-99.5623 115.0501,-106.5624 119.9501,-106.5623"/>
<text text-anchor="middle" x="136" y="-133.1" font-family="Helvetica,sans-Serif" font-size="8.00" fill="#000000">command</text>
</g>
<!-- load_vs&#45;&gt;preprocess_input -->
<g id="edge3" class="edge">
<title>load_vs&#45;&gt;preprocess_input</title>
<path fill="none" stroke="#000000" d="M243.774,-170.4567C240.3375,-164.7292 235.8815,-157.3025 231.9362,-150.727"/>
<polygon fill="#000000" stroke="#000000" points="233.9201,-149.2715 228.2178,-144.5296 229.7184,-151.7926 233.9201,-149.2715"/>
<text text-anchor="middle" x="248.5" y="-155.6" font-family="Helvetica,sans-Serif" font-size="8.00" fill="#000000">vs_file</text>
</g>
<!-- run_qeheat&#45;&gt;gk_qeheat_results -->
<g id="edge14" class="edge">
<title>run_qeheat&#45;&gt;gk_qeheat_results</title>
<path fill="none" stroke="#000000" d="M117.5,-80.4567C117.5,-74.9678 117.5,-67.9184 117.5,-61.5532"/>
<polygon fill="#000000" stroke="#000000" points="119.9501,-61.5296 117.5,-54.5296 115.0501,-61.5296 119.9501,-61.5296"/>
</g>
</g>
</svg>
