<?xml version="1.0" encoding="UTF-8" standalone="no"?>
<!DOCTYPE svg PUBLIC "-//W3C//DTD SVG 1.1//EN"
 "http://www.w3.org/Graphics/SVG/1.1/DTD/svg11.dtd">
<!-- Generated by graphviz version 2.40.1 (0)
 -->
<!-- Title: workflow Pages: 1 -->
<svg width="278pt" height="234pt"
 viewBox="0.00 0.00 286.00 241.00" xmlns="http://www.w3.org/2000/svg" xmlns:xlink="http://www.w3.org/1999/xlink">
<g id="graph0" class="graph" transform="scale(.9722 .9722) rotate(0) translate(4 237)">
<title>workflow</title>
<g id="clust1" class="cluster">
<title>cluster_inputs</title>
<polygon fill="transparent" stroke="#000000" stroke-dasharray="5,2" points="33.5,-170 33.5,-225 116.5,-225 116.5,-170 33.5,-170"/>
<text text-anchor="middle" x="73.5" y="-213" font-family="Times,serif" font-size="10.00" fill="#000000">Workflow Inputs</text>
</g>
<g id="clust2" class="cluster">
<title>cluster_outputs</title>
<polygon fill="transparent" stroke="#000000" stroke-dasharray="5,2" points="72.5,-8 72.5,-63 176.5,-63 176.5,-8 72.5,-8"/>
<text text-anchor="middle" x="116" y="-15" font-family="Times,serif" font-size="10.00" fill="#000000">Workflow Outputs</text>
</g>
<!-- step -->
<g id="node1" class="node">
<title>step</title>
<polygon fill="#94ddf4" stroke="#000000" points="42,-178.5 42,-197.5 77,-197.5 77,-178.5 42,-178.5"/>
<text text-anchor="middle" x="59.5" y="-185.5" font-family="Helvetica,sans-Serif" font-size="10.00" fill="#000000">step</text>
</g>
<!-- load_xvs -->
<g id="node5" class="node">
<title>load_xvs</title>
<polygon fill="#fafad2" stroke="#000000" points="0,-125.5 0,-144.5 53,-144.5 53,-125.5 0,-125.5"/>
<text text-anchor="middle" x="26.5" y="-132.5" font-family="Helvetica,sans-Serif" font-size="10.00" fill="#000000">load_xvs</text>
</g>
<!-- step&#45;&gt;load_xvs -->
<g id="edge2" class="edge">
<title>step&#45;&gt;load_xvs</title>
<path fill="none" stroke="#000000" d="M53.4473,-178.279C48.656,-170.5838 41.868,-159.682 36.3037,-150.7454"/>
<polygon fill="#000000" stroke="#000000" points="38.2941,-149.3067 32.5143,-144.6594 34.1345,-151.8967 38.2941,-149.3067"/>
<text text-anchor="middle" x="51.5" y="-155.6" font-family="Helvetica,sans-Serif" font-size="8.00" fill="#000000">step</text>
</g>
<!-- db -->
<g id="node2" class="node">
<title>db</title>
<polygon fill="#94ddf4" stroke="#000000" points="81,-178.5 81,-197.5 108,-197.5 108,-178.5 81,-178.5"/>
<text text-anchor="middle" x="94.5" y="-185.5" font-family="Helvetica,sans-Serif" font-size="10.00" fill="#000000">db</text>
</g>
<!-- load_pseudos -->
<g id="node4" class="node">
<title>load_pseudos</title>
<polygon fill="#f3cea1" stroke="#000000" points="57,-125.5 57,-144.5 132,-144.5 132,-125.5 57,-125.5"/>
<text text-anchor="middle" x="94.5" y="-132.5" font-family="Helvetica,sans-Serif" font-size="10.00" fill="#000000">load_pseudos</text>
</g>
<!-- db&#45;&gt;load_pseudos -->
<g id="edge1" class="edge">
<title>db&#45;&gt;load_pseudos</title>
<path fill="none" stroke="#000000" d="M94.5,-178.279C94.5,-170.8827 94.5,-160.5239 94.5,-151.7951"/>
<polygon fill="#000000" stroke="#000000" points="96.9501,-151.6594 94.5,-144.6594 92.0501,-151.6594 96.9501,-151.6594"/>
<text text-anchor="middle" x="99.5" y="-155.6" font-family="Helvetica,sans-Serif" font-size="8.00" fill="#000000">db</text>
</g>
<!-- db&#45;&gt;load_xvs -->
<g id="edge3" class="edge">
<title>db&#45;&gt;load_xvs</title>
<path fill="none" stroke="#000000" d="M85.5513,-178.4233C82.9688,-175.6873 80.1362,-172.7126 77.5,-170 70.0531,-162.3373 69.095,-159.3481 60.5,-153 58.1428,-151.259 55.5949,-149.5861 52.9909,-148.0091"/>
<polygon fill="#000000" stroke="#000000" points="54.1699,-145.861 46.8764,-144.5163 51.7394,-150.1158 54.1699,-145.861"/>
<text text-anchor="middle" x="74.5" y="-155.6" font-family="Helvetica,sans-Serif" font-size="8.00" fill="#000000">db</text>
</g>
<!-- get&#45;command -->
<g id="node6" class="node">
<title>get&#45;command</title>
<polygon fill="#fafad2" stroke="#000000" points="136.5,-125.5 136.5,-144.5 212.5,-144.5 212.5,-125.5 136.5,-125.5"/>
<text text-anchor="middle" x="174.5" y="-132.5" font-family="Helvetica,sans-Serif" font-size="10.00" fill="#000000">get&#45;command</text>
</g>
<!-- db&#45;&gt;get&#45;command -->
<g id="edge4" class="edge">
<title>db&#45;&gt;get&#45;command</title>
<path fill="none" stroke="#000000" d="M108.0709,-179.0093C120.709,-170.6365 139.7183,-158.0429 154.1684,-148.4697"/>
<polygon fill="#000000" stroke="#000000" points="155.5678,-150.4815 160.0502,-144.573 152.8615,-146.3966 155.5678,-150.4815"/>
<text text-anchor="middle" x="150.5" y="-155.6" font-family="Helvetica,sans-Serif" font-size="8.00" fill="#000000">db</text>
</g>
<!-- load_input -->
<g id="node7" class="node">
<title>load_input</title>
<polygon fill="#fafad2" stroke="#000000" points="217,-125.5 217,-144.5 278,-144.5 278,-125.5 217,-125.5"/>
<text text-anchor="middle" x="247.5" y="-132.5" font-family="Helvetica,sans-Serif" font-size="10.00" fill="#000000">load_input</text>
</g>
<!-- db&#45;&gt;load_input -->
<g id="edge5" class="edge">
<title>db&#45;&gt;load_input</title>
<path fill="none" stroke="#000000" d="M108.0777,-183.2966C131.4288,-175.2077 179.8759,-158.4253 213.0378,-146.9379"/>
<polygon fill="#000000" stroke="#000000" points="214.0552,-149.1784 219.8676,-144.572 212.4513,-144.5483 214.0552,-149.1784"/>
<text text-anchor="middle" x="198.5" y="-155.6" font-family="Helvetica,sans-Serif" font-size="8.00" fill="#000000">db</text>
</g>
<!-- gk_siesta_output -->
<g id="node3" class="node">
<title>gk_siesta_output</title>
<polygon fill="#94ddf4" stroke="#000000" points="80,-35.5 80,-54.5 169,-54.5 169,-35.5 80,-35.5"/>
<text text-anchor="middle" x="124.5" y="-42.5" font-family="Helvetica,sans-Serif" font-size="10.00" fill="#000000">gk_siesta_output</text>
</g>
<!-- run_siesta -->
<g id="node8" class="node">
<title>run_siesta</title>
<polygon fill="#fafad2" stroke="#000000" points="94.5,-80.5 94.5,-99.5 154.5,-99.5 154.5,-80.5 94.5,-80.5"/>
<text text-anchor="middle" x="124.5" y="-87.5" font-family="Helvetica,sans-Serif" font-size="10.00" fill="#000000">run_siesta</text>
</g>
<!-- load_pseudos&#45;&gt;run_siesta -->
<g id="edge7" class="edge">
<title>load_pseudos&#45;&gt;run_siesta</title>
<path fill="none" stroke="#000000" d="M100.8622,-125.4567C104.6806,-119.7292 109.6317,-112.3025 114.0154,-105.727"/>
<polygon fill="#000000" stroke="#000000" points="116.3025,-106.713 118.1469,-99.5296 112.2255,-103.9949 116.3025,-106.713"/>
<text text-anchor="middle" x="127" y="-110.6" font-family="Helvetica,sans-Serif" font-size="8.00" fill="#000000">pseudos</text>
</g>
<!-- load_xvs&#45;&gt;run_siesta -->
<g id="edge8" class="edge">
<title>load_xvs&#45;&gt;run_siesta</title>
<path fill="none" stroke="#000000" d="M47.2833,-125.4567C61.8353,-118.7746 81.4241,-109.7798 97.23,-102.5219"/>
<polygon fill="#000000" stroke="#000000" points="98.4077,-104.6772 103.7467,-99.5296 96.3629,-100.2242 98.4077,-104.6772"/>
<text text-anchor="middle" x="89.5" y="-110.6" font-family="Helvetica,sans-Serif" font-size="8.00" fill="#000000">xvs</text>
</g>
<!-- get&#45;command&#45;&gt;run_siesta -->
<g id="edge6" class="edge">
<title>get&#45;command&#45;&gt;run_siesta</title>
<path fill="none" stroke="#000000" d="M163.8963,-125.4567C157.1347,-119.3712 148.2417,-111.3675 140.6163,-104.5047"/>
<polygon fill="#000000" stroke="#000000" points="141.9305,-102.3913 135.0884,-99.5296 138.6525,-106.0334 141.9305,-102.3913"/>
<text text-anchor="middle" x="172" y="-110.6" font-family="Helvetica,sans-Serif" font-size="8.00" fill="#000000">command</text>
</g>
<!-- load_input&#45;&gt;run_siesta -->
<g id="edge9" class="edge">
<title>load_input&#45;&gt;run_siesta</title>
<path fill="none" stroke="#000000" d="M229.7145,-125.369C218.8875,-119.7746 204.6521,-112.8884 191.5,-108 181.961,-104.4545 171.4203,-101.2886 161.5781,-98.638"/>
<polygon fill="#000000" stroke="#000000" points="161.9515,-96.2032 154.5592,-96.8009 160.7108,-100.9436 161.9515,-96.2032"/>
<text text-anchor="middle" x="216.5" y="-110.6" font-family="Helvetica,sans-Serif" font-size="8.00" fill="#000000">fdf</text>
</g>
<!-- run_siesta&#45;&gt;gk_siesta_output -->
<g id="edge10" class="edge">
<title>run_siesta&#45;&gt;gk_siesta_output</title>
<path fill="none" stroke="#000000" d="M124.5,-80.4567C124.5,-74.9678 124.5,-67.9184 124.5,-61.5532"/>
<polygon fill="#000000" stroke="#000000" points="126.9501,-61.5296 124.5,-54.5296 122.0501,-61.5296 126.9501,-61.5296"/>
</g>
</g>
</svg>
