<?xml version="1.0" encoding="UTF-8" standalone="no"?>
<!DOCTYPE svg PUBLIC "-//W3C//DTD SVG 1.1//EN"
 "http://www.w3.org/Graphics/SVG/1.1/DTD/svg11.dtd">
<!-- Generated by graphviz version 2.40.1 (0)
 -->
<!-- Title: workflow Pages: 1 -->
<svg width="228pt" height="157pt"
 viewBox="0.00 0.00 235.00 161.00" xmlns="http://www.w3.org/2000/svg" xmlns:xlink="http://www.w3.org/1999/xlink">
<g id="graph0" class="graph" transform="scale(.9722 .9722) rotate(0) translate(4 157)">
<title>workflow</title>
<g id="clust1" class="cluster">
<title>cluster_inputs</title>
<polygon fill="transparent" stroke="#000000" stroke-dasharray="5,2" points="8,-90 8,-145 219,-145 219,-90 8,-90"/>
<text text-anchor="middle" x="48" y="-133" font-family="Times,serif" font-size="10.00" fill="#000000">Workflow Inputs</text>
</g>
<!-- db -->
<g id="node1" class="node">
<title>db</title>
<polygon fill="#94ddf4" stroke="#000000" points="16.5,-98.5 16.5,-117.5 43.5,-117.5 43.5,-98.5 16.5,-98.5"/>
<text text-anchor="middle" x="30" y="-105.5" font-family="Helvetica,sans-Serif" font-size="10.00" fill="#000000">db</text>
</g>
<!-- store_code_results -->
<g id="node5" class="node">
<title>store_code_results</title>
<polygon fill="#f3cea1" stroke="#000000" points="66.5,-.5 66.5,-19.5 163.5,-19.5 163.5,-.5 66.5,-.5"/>
<text text-anchor="middle" x="115" y="-7.5" font-family="Helvetica,sans-Serif" font-size="10.00" fill="#000000">store_code_results</text>
</g>
<!-- db&#45;&gt;store_code_results -->
<g id="edge1" class="edge">
<title>db&#45;&gt;store_code_results</title>
<path fill="none" stroke="#000000" d="M25.6462,-98.0576C20.549,-84.7387 14.0972,-60.9382 25,-45 30.8254,-36.4842 51.8546,-28.0662 72.1208,-21.6206"/>
<polygon fill="#000000" stroke="#000000" points="72.9767,-23.9205 78.9414,-19.513 71.5301,-19.2389 72.9767,-23.9205"/>
<text text-anchor="middle" x="30" y="-53.1" font-family="Helvetica,sans-Serif" font-size="8.00" fill="#000000">db</text>
</g>
<!-- get_code_currents -->
<g id="node6" class="node">
<title>get_code_currents</title>
<polygon fill="#fafad2" stroke="#000000" points="37,-45.5 37,-64.5 133,-64.5 133,-45.5 37,-45.5"/>
<text text-anchor="middle" x="85" y="-52.5" font-family="Helvetica,sans-Serif" font-size="10.00" fill="#000000">get_code_currents</text>
</g>
<!-- db&#45;&gt;get_code_currents -->
<g id="edge5" class="edge">
<title>db&#45;&gt;get_code_currents</title>
<path fill="none" stroke="#000000" d="M38.8774,-98.3526C41.4588,-95.6155 44.3086,-92.6579 47,-90 53.98,-83.1068 61.9321,-75.7149 68.7516,-69.5087"/>
<polygon fill="#000000" stroke="#000000" points="70.6186,-71.1237 74.1673,-64.6114 67.332,-67.4892 70.6186,-71.1237"/>
<text text-anchor="middle" x="69" y="-75.6" font-family="Helvetica,sans-Serif" font-size="8.00" fill="#000000">db</text>
</g>
<!-- output_file -->
<g id="node2" class="node">
<title>output_file</title>
<polygon fill="#94ddf4" stroke="#000000" points="110.5,-98.5 110.5,-117.5 171.5,-117.5 171.5,-98.5 110.5,-98.5"/>
<text text-anchor="middle" x="141" y="-105.5" font-family="Helvetica,sans-Serif" font-size="10.00" fill="#000000">output_file</text>
</g>
<!-- output_file&#45;&gt;store_code_results -->
<g id="edge3" class="edge">
<title>output_file&#45;&gt;store_code_results</title>
<path fill="none" stroke="#000000" d="M142.2974,-98.0572C143.8908,-82.3225 145.1547,-51.101 134,-28 133.5307,-27.0282 132.985,-26.0818 132.3811,-25.1644"/>
<polygon fill="#000000" stroke="#000000" points="134.0972,-23.3957 127.7435,-19.5704 130.325,-26.523 134.0972,-23.3957"/>
<text text-anchor="middle" x="160.5" y="-53.1" font-family="Helvetica,sans-Serif" font-size="8.00" fill="#000000">output_file</text>
</g>
<!-- code_title -->
<g id="node3" class="node">
<title>code_title</title>
<polygon fill="#94ddf4" stroke="#000000" points="47.5,-98.5 47.5,-117.5 106.5,-117.5 106.5,-98.5 47.5,-98.5"/>
<text text-anchor="middle" x="77" y="-105.5" font-family="Helvetica,sans-Serif" font-size="10.00" fill="#000000">code_title</text>
</g>
<!-- code_title&#45;&gt;get_code_currents -->
<g id="edge6" class="edge">
<title>code_title&#45;&gt;get_code_currents</title>
<path fill="none" stroke="#000000" d="M78.4673,-98.279C79.5837,-90.8827 81.1473,-80.5239 82.4649,-71.7951"/>
<polygon fill="#000000" stroke="#000000" points="84.9197,-71.9467 83.542,-64.6594 80.0746,-71.2153 84.9197,-71.9467"/>
<text text-anchor="middle" x="99.5" y="-75.6" font-family="Helvetica,sans-Serif" font-size="8.00" fill="#000000">code_title</text>
</g>
<!-- step -->
<g id="node4" class="node">
<title>step</title>
<polygon fill="#94ddf4" stroke="#000000" points="175.5,-98.5 175.5,-117.5 210.5,-117.5 210.5,-98.5 175.5,-98.5"/>
<text text-anchor="middle" x="193" y="-105.5" font-family="Helvetica,sans-Serif" font-size="10.00" fill="#000000">step</text>
</g>
<!-- step&#45;&gt;store_code_results -->
<g id="edge2" class="edge">
<title>step&#45;&gt;store_code_results</title>
<path fill="none" stroke="#000000" d="M193.4219,-98.4584C193.5209,-85.173 191.8744,-60.9427 180,-45 172.7724,-35.2961 162.0359,-27.9895 151.3613,-22.6317"/>
<polygon fill="#000000" stroke="#000000" points="152.1337,-20.2884 144.7548,-19.5436 150.0587,-24.7274 152.1337,-20.2884"/>
<text text-anchor="middle" x="197" y="-53.1" font-family="Helvetica,sans-Serif" font-size="8.00" fill="#000000">step</text>
</g>
<!-- get_code_currents&#45;&gt;store_code_results -->
<g id="edge4" class="edge">
<title>get_code_currents&#45;&gt;store_code_results</title>
<path fill="none" stroke="#000000" d="M86.8532,-45.4363C88.221,-39.9984 90.471,-33.2484 94,-28 94.7636,-26.8643 95.6175,-25.7584 96.5321,-24.6898"/>
<polygon fill="#000000" stroke="#000000" points="98.2948,-26.3916 101.4737,-19.691 94.8101,-22.9467 98.2948,-26.3916"/>
<text text-anchor="middle" x="115.5" y="-30.6" font-family="Helvetica,sans-Serif" font-size="8.00" fill="#000000">current_title</text>
</g>
</g>
</svg>
